<?xml version="1.0" encoding="utf-8"?>
<!-- Generator: Adobe Illustrator 27.1.1, SVG Export Plug-In . SVG Version: 6.00 Build 0)  -->
<svg version="1.1" id="Laag_1" xmlns="http://www.w3.org/2000/svg" xmlns:xlink="http://www.w3.org/1999/xlink" x="0px" y="0px"
	 viewBox="0 0 54.9 54.9" style="enable-background:new 0 0 54.9 54.9;" xml:space="preserve">
<style type="text/css">
	.st0{fill:#FCCB00;}
</style>
<g>
	
		<image style="overflow:visible;opacity:0.75;" width="69" height="77" xlink:href="F082980D.png"  transform="matrix(1 0 0 1 -7 -11.1)">
	</image>
	<g>
		<path class="st0" d="M18.2,44.9c0-2.1,0-4,0-6c0-1.1,0.2-1.3,1.3-1.3c1.4,0,2.8,0,4.2,0c0.4,0,0.6-0.1,0.7-0.5
			c0.5-1.5,0.9-3.1,0.8-4.8c-0.1-1.1-0.4-1.9-1.4-2.5c-1.8-1.1-3.1-2.8-4.2-4.6c-0.3-0.4-0.5-0.6-0.9-0.7c-2.6-0.5-4.5-2.1-6.1-4.1
			c-2.2-2.8-3.3-5.8-3.7-9.3c-0.1-0.8-0.2-1.7-0.3-2.5c0-1.1,0.5-1.6,1.6-1.7c1.6,0,3.2,0,4.9,0c0-0.5,0-0.9,0-1.3
			c0-0.8,0.3-1.1,1.1-1.1c1.8,0,3.8,0,5.6,0c5.6,0,11.2,0,16.8,0c1.2,0,1.3,0.2,1.3,1.3c0,0.3,0,0.8,0,1.2c1.3,0,2.7,0,3.9,0
			C46,7,46.5,7.3,46.3,9.7c-0.3,4-1.4,7.7-3.9,10.9c-1.7,2.1-3.7,3.6-6.3,4.1c-0.2,0-0.4,0.3-0.5,0.5c-1,1.8-2.1,3.4-3.8,4.4
			c-1.8,1.1-2.1,2.6-1.8,4.3c0.2,1.1,0.6,2.2,0.8,3.3c0.1,0.4,0.3,0.5,0.7,0.5c1.4,0,2.9,0,4.3,0c0.8,0,1.1,0.3,1.1,1.1
			c0,1.8,0,3.6,0,5.4c0,0.3,0,0.5,0,0.8c0.7,0,1.3,0,1.9,0c0.8,0,1,0.3,1.1,1.1c0,1.1,0,2.2,0,3.2c0,0.8-0.3,1.1-1.1,1.1
			c-1.8,0-3.6,0-5.3,0c-5.7,0-11.3,0-17,0c-1.2,0-1.3-0.2-1.3-1.3c0-1,0-1.9,0-2.9c0-0.8,0.3-1.1,1.1-1.1
			C16.8,44.9,17.4,44.9,18.2,44.9z M37.2,21.6c3.8-1.6,6.6-7.9,6.4-11.8c-1.3,0-2.6,0-3.8,0C39.3,13.7,38.6,17.7,37.2,21.6z
			 M15.2,9.7c-1.3,0-2.7,0-3.9,0c0.1,5,3.2,10.6,6.4,11.8C16.3,17.7,15.6,13.7,15.2,9.7z"/>
	</g>
</g>
</svg>
