<?xml version="1.0" encoding="utf-8"?>
<!-- Generator: Adobe Illustrator 27.1.1, SVG Export Plug-In . SVG Version: 6.00 Build 0)  -->
<svg version="1.1" id="Laag_1" xmlns="http://www.w3.org/2000/svg" xmlns:xlink="http://www.w3.org/1999/xlink" x="0px" y="0px"
	 viewBox="0 0 96 96" style="enable-background:new 0 0 96 96;" xml:space="preserve">
<style type="text/css">
	.st0{fill:#3456FF;}
	.st1{fill:#FFFFFF;}
</style>
<circle class="st0" cx="48" cy="48" r="33"/>
<circle class="st0" cx="48" cy="48" r="27"/>
<path class="st1" d="M48,33c-1.7,0-3,1.3-3,3v9h-9c-1.7,0-3,1.3-3,3c0,1.7,1.3,3,3,3h9v9c0,1.7,1.3,3,3,3s3-1.3,3-3v-9h9
	c1.7,0,3-1.3,3-3c0-1.7-1.3-3-3-3h-9v-9C51,34.3,49.7,33,48,33z"/>
</svg>
