<?xml version="1.0" encoding="utf-8"?>
<!-- Generator: Adobe Illustrator 27.1.1, SVG Export Plug-In . SVG Version: 6.00 Build 0)  -->
<svg version="1.1" id="Laag_1" xmlns="http://www.w3.org/2000/svg" xmlns:xlink="http://www.w3.org/1999/xlink" x="0px" y="0px"
	 viewBox="0 0 128 128" style="enable-background:new 0 0 128 128;" xml:space="preserve">
<style type="text/css">
	.st0{fill:#FFFFFF;}
</style>
<path class="st0" d="M64,69.7c5.3-5.3,10.6-10.5,15.8-15.6c6.2-6.2,12.4-12.3,18.7-18.5c6-5.9,16.1-3.2,18.3,4.8
	c1.1,4,0.1,7.4-2.9,10.3c-4.5,4.5-9.1,9-13.6,13.5C91,73.4,81.8,82.6,72.5,91.8c-3.6,3.6-8,4.6-12.9,3.1c-1.1-0.3-2.2-1-3-1.8
	C42.5,79.1,28.3,64.9,14.1,50.8c-3-3-3.9-6.5-2.8-10.6c2.1-7.8,12-10.5,17.9-4.8c4.7,4.5,9.2,9.1,13.8,13.6
	c6.7,6.6,13.4,13.3,20.1,19.9C63.4,69.2,63.6,69.4,64,69.7z"/>
</svg>
