<?xml version="1.0" encoding="utf-8"?>
<!-- Generator: Adobe Illustrator 27.1.1, SVG Export Plug-In . SVG Version: 6.00 Build 0)  -->
<svg version="1.1" id="Laag_1" xmlns="http://www.w3.org/2000/svg" xmlns:xlink="http://www.w3.org/1999/xlink" x="0px" y="0px"
	 viewBox="0 0 47.78 47.78" style="enable-background:new 0 0 47.78 47.78;" xml:space="preserve">
<g>
	<g>
		<path d="M23.89,47.78C10.72,47.78,0,37.06,0,23.89C0,10.72,10.72,0,23.89,0s23.89,10.72,23.89,23.89
			C47.78,37.06,37.06,47.78,23.89,47.78z M23.89,4C12.92,4,4,12.92,4,23.89s8.92,19.89,19.89,19.89s19.89-8.92,19.89-19.89
			S34.86,4,23.89,4z"/>
	</g>
	<polygon points="30.63,13.93 23.89,20.67 17.15,13.93 13.93,17.15 20.67,23.89 13.93,30.63 17.15,33.85 23.89,27.11 30.63,33.85 
		33.85,30.63 27.11,23.89 33.85,17.15 	"/>
</g>
</svg>
