<?xml version="1.0" encoding="utf-8"?>
<!-- Generator: Adobe Illustrator 27.1.1, SVG Export Plug-In . SVG Version: 6.00 Build 0)  -->
<svg version="1.1" id="Laag_1" xmlns="http://www.w3.org/2000/svg" xmlns:xlink="http://www.w3.org/1999/xlink" x="0px" y="0px"
	 viewBox="0 0 47.8 47.8" style="enable-background:new 0 0 47.8 47.8;" xml:space="preserve">
<style type="text/css">
	.st0{fill:#FFFFFF;}
</style>
<g>
	<path class="st0" d="M23.9,47.8C10.7,47.8,0,37.1,0,23.9S10.7,0,23.9,0s23.9,10.7,23.9,23.9S37.1,47.8,23.9,47.8z M23.9,4
		C12.9,4,4,12.9,4,23.9s8.9,19.9,19.9,19.9s19.9-8.9,19.9-19.9S34.9,4,23.9,4z"/>
</g>
<polygon class="st0" points="30.6,13.9 23.9,20.7 17.1,13.9 13.9,17.1 20.7,23.9 13.9,30.6 17.1,33.8 23.9,27.1 30.6,33.8 
	33.8,30.6 27.1,23.9 33.8,17.1 "/>
</svg>
