<?xml version="1.0" encoding="utf-8"?>
<!-- Generator: Adobe Illustrator 27.1.1, SVG Export Plug-In . SVG Version: 6.00 Build 0)  -->
<svg version="1.1" id="Laag_1" xmlns="http://www.w3.org/2000/svg" xmlns:xlink="http://www.w3.org/1999/xlink" x="0px" y="0px"
	 viewBox="0 0 54.9 54.9" style="enable-background:new 0 0 54.9 54.9;" xml:space="preserve">
<style type="text/css">
	.st0{fill:#FFFFFF;}
</style>
<g>
	<path class="st0" d="M27.5,3.5c13.2,0,24,10.8,24,24s-10.7,24-24,24s-24-10.8-24-24S14.2,3.5,27.5,3.5 M27.5,0.5
		c-14.9,0-27,12.1-27,27s12.1,27,27,27s27-12.1,27-27S42.3,0.5,27.5,0.5L27.5,0.5z"/>
</g>
<g>
	<path class="st0" d="M28.6,46.3c-2,0-2,0-4,0c-3.5,0-4.6,0-5.5,0c-0.6,0-0.6-0.1-0.6-3.2c0-2.2-0.4-4.2,2.7-4.5
		c3.4-0.3,3.2-3.2,3.2-5.6c0-2.2,0-4.4-3.1-4.7c-3.1-0.3-2.8-2.7-2.8-4.9c0-1.8,1.7-3.4,3.9-3.4c10,0,9.3-0.5,9.4,9.6
		c0,3.7-0.3,9.2,3.6,9.2c1.3,0,1.2,3.1,1.2,4.9c0,2.8-0.2,2.6-1,2.6"/>
	<circle class="st0" cx="26.5" cy="12.5" r="5.6"/>
</g>
</svg>
