<?xml version="1.0" encoding="utf-8"?>
<!-- Generator: Adobe Illustrator 27.1.1, SVG Export Plug-In . SVG Version: 6.00 Build 0)  -->
<svg version="1.1" id="Laag_1" xmlns="http://www.w3.org/2000/svg" xmlns:xlink="http://www.w3.org/1999/xlink" x="0px" y="0px"
	 viewBox="0 0 54.93 54.93" style="enable-background:new 0 0 54.93 54.93;" xml:space="preserve">
<style type="text/css">
	.st0{fill:#FFFFFF;}
</style>
<g>
	<path class="st0" d="M27.46,3.5c13.21,0,23.96,10.75,23.96,23.96S40.68,51.43,27.46,51.43S3.5,40.68,3.5,27.46S14.25,3.5,27.46,3.5
		 M27.46,0.5C12.57,0.5,0.5,12.57,0.5,27.46s12.07,26.96,26.96,26.96s26.96-12.07,26.96-26.96S42.35,0.5,27.46,0.5L27.46,0.5z"/>
</g>
<g>
	<path class="st0" d="M28.57,46.32c-1.99,0-1.99,0-3.98,0c-3.55,0-4.64,0-5.52,0c-0.64,0-0.62-0.09-0.62-3.25
		c0-2.15-0.4-4.19,2.72-4.51c3.4-0.35,3.17-3.2,3.18-5.56c0.02-2.25-0.02-4.41-3.08-4.71c-3.1-0.3-2.84-2.67-2.84-4.86
		c0-1.79,1.66-3.38,3.93-3.38c10.04-0.02,9.29-0.54,9.37,9.57c0.03,3.72-0.3,9.16,3.61,9.16c1.35,0,1.15,3.13,1.15,4.91
		c0,2.77-0.15,2.57-0.95,2.57"/>
	<circle class="st0" cx="26.46" cy="12.47" r="5.59"/>
</g>
</svg>
