<?xml version="1.0" encoding="utf-8"?>
<!-- Generator: Adobe Illustrator 27.1.1, SVG Export Plug-In . SVG Version: 6.00 Build 0)  -->
<svg version="1.1" id="Laag_1" xmlns="http://www.w3.org/2000/svg" xmlns:xlink="http://www.w3.org/1999/xlink" x="0px" y="0px"
	 viewBox="0 0 54.9 54.9" style="enable-background:new 0 0 54.9 54.9;" xml:space="preserve">
<path d="M16.3,48.4c0-2.5,0-4.8,0-7.2c0-1.3,0.2-1.6,1.6-1.6c1.7,0,3.3,0,5,0c0.5,0,0.7-0.1,0.8-0.6c0.6-1.8,1.1-3.7,1-5.7
	c-0.1-1.3-0.5-2.3-1.7-3c-2.2-1.3-3.7-3.3-5-5.5c-0.3-0.5-0.6-0.7-1.1-0.8c-3.1-0.6-5.4-2.5-7.3-4.9C7,15.8,5.7,12.1,5.2,8
	C5.1,7,5,6,4.9,5C4.9,3.7,5.5,3.1,6.8,3c1.9,0,3.8,0,5.9,0c0-0.6,0-1.1,0-1.6c0-1,0.3-1.3,1.3-1.3c2.2,0,4.5,0,6.7,0
	c6.7,0,13.4,0,20.1,0c1.4,0,1.6,0.2,1.6,1.5c0,0.4,0,0.9,0,1.4c1.6,0,3.2,0,4.7,0c2.6-0.1,3.2,0.3,3,3.1c-0.3,4.8-1.7,9.2-4.7,13.1
	c-2,2.5-4.4,4.3-7.6,4.9c-0.2,0-0.5,0.3-0.6,0.6c-1.2,2.1-2.5,4.1-4.6,5.3c-2.2,1.3-2.5,3.1-2.2,5.2c0.2,1.3,0.7,2.6,1,3.9
	c0.1,0.5,0.4,0.6,0.8,0.6c1.7,0,3.5,0,5.2,0c1,0,1.3,0.3,1.3,1.3c0,2.2,0,4.3,0,6.5c0,0.3,0,0.6,0,1c0.8,0,1.6,0,2.3,0
	c0.9,0,1.2,0.3,1.3,1.3c0,1.3,0,2.6,0,3.8c0,0.9-0.3,1.3-1.3,1.3c-2.1,0-4.3,0-6.4,0c-6.8,0-13.6,0-20.4,0c-1.4,0-1.6-0.2-1.6-1.6
	c0-1.2,0-2.3,0-3.5c0-1,0.3-1.3,1.3-1.3C14.7,48.4,15.4,48.4,16.3,48.4z M39.1,20.4c4.6-1.9,7.9-9.5,7.7-14.2c-1.5,0-3.1,0-4.6,0
	C41.7,11,40.8,15.8,39.1,20.4z M12.8,6.2c-1.6,0-3.2,0-4.7,0c0.1,6,3.8,12.7,7.7,14.1C14.1,15.7,13.2,11,12.8,6.2z"/>
</svg>
