<?xml version="1.0" encoding="utf-8"?>
<!-- Generator: Adobe Illustrator 27.1.1, SVG Export Plug-In . SVG Version: 6.00 Build 0)  -->
<svg version="1.1" id="Laag_1" xmlns="http://www.w3.org/2000/svg" xmlns:xlink="http://www.w3.org/1999/xlink" x="0px" y="0px"
	 viewBox="0 0 24.69 23.6" style="enable-background:new 0 0 24.69 23.6;" xml:space="preserve">
<style type="text/css">
	.st0{fill:#FFFFFF;}
</style>
<path class="st0" d="M24.41,21.66c-1.13-1.34-2.42-2.42-3.71-3.29c-5.33-3.58-11.39-3.58-16.72,0c-1.29,0.87-2.57,1.95-3.71,3.29
	c-0.52,0.62-0.25,1.94,0.4,1.94l11.67,0l11.67,0C24.67,23.6,24.94,22.28,24.41,21.66z"/>
<path class="st0" d="M11.98,12.79L11.98,12.79c-2.82,0-5.11-2.29-5.11-5.11V5.11C6.86,2.29,9.15,0,11.98,0h0
	c2.82,0,5.11,2.29,5.11,5.11v2.56C17.09,10.5,14.8,12.79,11.98,12.79z"/>
</svg>
